<svg enable-background="new 0 0 512 512" viewBox="0 0 512 512" xmlns="http://www.w3.org/2000/svg"><g style="fill:none;stroke:#165268;stroke-width:15;stroke-linecap:round;stroke-linejoin:round;stroke-miterlimit:10"><path d="m260.5 321.9v-53.1c0-7.1 2.8-13.9 7.8-18.9s11.8-7.9 18.9-7.8c14.8 0 26.8 12 26.8 26.8v13"/><path d="m314 321.9v-40.2c0-7.4 3-14.1 7.8-18.9 5-5 11.8-7.9 18.9-7.8 14.8 0 26.8 12 26.8 26.8v20.2m-232.2 83.3-38.9-51.9c-9.3-12.4-6.5-30.1 6.2-39 4.6-3.3 10.2-5 15.8-5 8.2 0 16.3 3.6 21.7 10.6l51.5 65.9c5 6.4 15.3 2.9 15.3-5.3v-215.8c0-7.4 3-14.1 7.8-18.9 5.2-5.2 12.3-8 19.6-7.8 14.6.3 26.1 12.7 26.1 27.3v123.5"/><path d="m156.3 413.3 39.9 53.2c17.9 23.9 46 38 75.9 38h57.8c32.2 0 62.2-16.3 79.7-43.4 7.5-11.7 11.5-25.3 11.5-39.2v-119.9c0-14.8-12-26.8-26.8-26.8-7.4 0-14.1 3-18.9 7.9-5 5-7.8 11.8-7.8 18.9v27.2m-51.3-262.5c3 9 4.6 18.4 4.6 27.9 0 27.3-12.6 51.7-32.3 67.7m-109.8 0c-19.7-16-32.3-40.4-32.3-67.7 0-48.1 39.1-87.2 87.2-87.2 25.7 0 48.8 11.1 64.7 28.9"/><path d="m185.1 119.2c-3.9-7.6-5.9-16-5.8-24.5 0-30.1 24.4-54.4 54.4-54.4s54.4 24.4 54.4 54.4c0 8.6-2 17.1-5.9 24.7"/></g></svg>