<svg enable-background="new 0 0 512 512" viewBox="0 0 512 512" xmlns="http://www.w3.org/2000/svg"><path d="m505.3 79.6c-12.7-19.8-39.2-25.7-59-13-19.1 12.2-37.6 25.1-55.7 38.8-5.7-25.9-28.8-45.3-56.4-45.3h-188c-4.6 0-8.3 3.7-8.3 8.3s3.7 8.3 8.3 8.3h188c22.4 0 40.7 18.1 41.1 40.4-11.4 9-22.5 18.3-33.5 27.8v-4.5c0-16.7-13.6-30.3-30.3-30.3h-42.4c-4.6 0-8.3 3.7-8.3 8.3s3.7 8.3 8.3 8.3h42.4c7.5 0 13.7 6.1 13.7 13.7v19.6c-43.4 40.1-74.4 77.6-95.1 106.2l-75.7-73.8c-16.9-16.4-44-16.1-60.4.8s-16.1 44 .8 60.4l42.3 41.2c1.5 1.5 3.7 2.4 5.8 2.4 2.2 0 4.4-.9 5.9-2.5 3.2-3.3 3.1-8.5-.2-11.7l-42.3-41.2c-10.3-10.1-10.5-26.6-.5-36.9 10.1-10.3 26.6-10.5 36.9-.5l82.6 80.5c1.7 1.7 4.1 2.5 6.6 2.3 2.4-.2 4.6-1.5 6-3.5 1.6-2.3 3.2-4.5 4.8-6.8 32.7-45 100.3-124.4 212.5-196.2 12.1-7.8 28.3-4.2 36.1 7.9s4.2 28.3-7.9 36.1c-41.4 26.5-76.2 54-105.1 80.2-.1.1-.1.1-.2.2-19.5 17.7-36.3 34.8-50.7 50.6-11 12.2-21.7 24.9-31.8 37.9-22.4 29-33.2 48.6-34.7 51.3l-.1.2v.1l-.1.1c-3.8 7.3-10.9 12.4-19 13.7s-16.5-1.4-22.4-7.1l-46.8-45.6c-.4-.4-.8-.7-1.3-1-3.3-2.1-7.6-1.7-10.4 1.2-3.2 3.3-3.1 8.5.2 11.7l46.8 45.6c8 7.8 18.6 12.1 29.8 12.1 7.2 0 14.5-1.9 20.8-5.4 7.2-4 13.2-10.1 17.1-17.5.3-.6 15.5-28.9 49.8-69.5v88.2c0 7.5-6.1 13.7-13.7 13.7h-231.2c-7.5 0-13.7-6.1-13.7-13.7v-231.2c0-7.5 6.1-13.7 13.7-13.7h155.5c4.6 0 8.3-3.7 8.3-8.3s-3.7-8.3-8.3-8.3h-155.5c-16.7 0-30.3 13.6-30.3 30.3v231.2c0 16.7 13.6 30.3 30.3 30.3h231.2c16.7 0 30.3-13.6 30.3-30.3v-107.1c10.8-11.8 21.9-23.2 33.5-34.2v164c0 22.7-18.5 41.2-41.1 41.2h-276.5c-22.7 0-41.2-18.5-41.2-41.2v-276.5c0-22.7 18.5-41.2 41.2-41.2h55.2c4.6 0 8.3-3.7 8.3-8.3s-3.7-8.3-8.3-8.3h-55.2c-31.9 0-57.8 26-57.8 57.8v276.4c0 31.9 25.9 57.8 57.8 57.8h276.4c31.9 0 57.8-25.9 57.8-57.8v-179.4c27.8-25 61.1-51.1 100.4-76.3 19.8-12.6 25.6-39.1 12.9-59z" fill="#165268"/></svg>