<svg enable-background="new 0 0 512 512" viewBox="0 0 512 512" xmlns="http://www.w3.org/2000/svg"><path d="m441.2 336.8c7 8 6.6 19.6-1.1 29.7-11.1 14.5-68.6 47.6-75.1 51.3-3.4 1.9-7.6.7-9.5-2.6-1.9-3.4-.7-7.6 2.6-9.5 35.5-20.2 65.3-40.3 70.9-47.6 3.6-4.7 4.2-9.1 1.7-12-2.6-2.9-8.8-4-16.4.4-23.1 13.3-85.7 43.4-119.1 52.8-9.2 3.8-20.9 5.3-33.1 5.3-25.1 0-52.3-6.3-63.2-12-3.4-1.8-4.8-6-3-9.4 1.8-3.4 6-4.8 9.4-3 8.3 4.3 29.3 9.3 50.3 10.2 14.7.6 26.6-.8 34.2-3.9.3-.2.7-.3 1-.5 3.4-1.5 5.8-3.4 7.1-5.7 2.3-3.9 2.3-8.6 0-12.5s-6.4-6.2-11-6c-.1 0-.2 0-.3 0-43.7 0-72.7-12.1-96.1-21.7-20.6-8.6-35.6-14.8-53-10.5-18.7 4.5-40.3 21.7-67.9 53.9l60.1 60.1c23.9-10.8 50.4-10.3 73.4-9 6 .4 12.2.9 18.8 1.4 15.1 1.2 30.7 2.5 45.5 2.1 25.9-.6 42.5-6.8 65.8-18.8 3.4-1.8 7.7-.5 9.5 2.9s.5 7.7-2.9 9.5c-.1 0-.1.1-.2.1-24.7 12.7-43.4 19.8-71.9 20.4-15.5.3-31.5-.9-46.9-2.2-6.5-.5-12.7-1-18.5-1.4-25.8-1.5-45.9-.9-64 6.5 2.7 7.6 1 16.3-5 22.3l-28.7 28.7c-2.7 2.7-7.2 2.7-9.9 0l-50.1-50.1c-2.7-2.8-2.6-7.2.1-9.9 2.7-2.6 7-2.6 9.8 0l45.2 45.2 23.7-23.7c2.9-2.9 2.9-7.7 0-10.6l-68.2-68.2c-2.9-2.9-7.7-2.9-10.6 0l-23.7 23.7 14.2 14.2c2.7 2.8 2.7 7.2-.1 9.9-2.7 2.7-7.1 2.7-9.8 0l-19.2-19.3c-2.7-2.7-2.7-7.2 0-9.9l28.7-28.7c6.5-6.5 16.2-7.9 24.1-4.3 30.1-35.2 53.4-53.3 75.4-58.6 21.9-5.3 40.3 2.3 61.7 11.2 23.3 9.7 49.8 20.6 90.6 20.7 9.7-.3 18.4 4.5 23.4 12.9 3.3 5.5 4.4 11.7 3.4 17.7 33-12.6 76.4-33.8 94-44 14.5-8.4 27.5-4.8 33.9 2.5zm-279-237.1v-88.7c0-3.9 3.1-7 7-7h152.5c6.7 0 12.9 2.7 17.9 7.8l60.6 60.6c5.1 4.9 7.8 11.1 7.8 17.9v106.4c0 3.9-3.1 7-7 7s-7-3.1-7-7v-106.4c0-3-1.2-5.5-3.6-7.8l-.1-.1-.4-.4c-2.5-2.4-5.8-3.7-9.2-3.7h-39.9c-3.9 0-7-3.1-7-7v-40c0-3.4-1.3-6.7-3.7-9.2l-.4-.4-.1-.1c-2.3-2.4-4.9-3.6-7.8-3.6h-145.6v81.7c0 3.9-3.1 7-7 7s-7-3.1-7-7zm209.9-35.5-24.4-24.4v24.4zm-202.9 249.7h179.2c3.9 0 7-3.1 7-7s-3.1-7-7-7h-172.2v-172.8c0-3.9-3.1-7-7-7s-7 3.1-7 7v179.8c0 3.8 3.1 7 7 7zm90.1-237.3c-3.9 0-7 3.1-7 7s3.1 7 7 7h27.6c3.9 0 7-3.1 7-7v-34.5c0-3.9-3.1-7-7-7h-82.5c-3.9 0-7 3.1-7 7v34.5c0 3.9 3.1 7 7 7h27.6c3.9 0 7-3.1 7-7s-3.1-7-7-7h-20.6v-20.5h68.5v20.5zm245 84-49.6 85.9c-1.9 3.3-6.2 4.5-9.6 2.6-3.3-1.9-4.5-6.2-2.6-9.6l23-39.9-24.2-14-51.2 88.6 24.2 14 14.5-25.1c1.9-3.4 6.2-4.5 9.5-2.6 3.4 1.9 4.5 6.2 2.6 9.5v.1l-18 31.1c0 .1-.1.1-.1.2-.2.3-.3.5-.5.8-.1.1-.2.2-.3.4-.1.1-.2.2-.3.3l-.1.1-45.3 40.6c-2.9 2.6-7.3 3.1-10.7 1.1s-5.2-5.9-4.4-9.8l12.5-59.5c.1-.3.1-.5.2-.8.1-.2.2-.5.3-.7 0-.1.1-.1.1-.2.1-.1.1-.2.2-.3l81.2-140.7c3.7-6.4 9.8-11.1 17-13s14.8-1 21.2 2.8c6.4 3.7 11.1 9.8 13 17s1.1 14.7-2.6 21.1zm-99.2 138.4-19.6-11.3-7.5 35.6zm67.5-111.5 7.6-13.1-24.2-14-7.6 13.1zm20.9-44.5c-1-3.6-3.3-6.6-6.5-8.5s-7-2.3-10.6-1.4c-3.6 1-6.6 3.3-8.5 6.5l-5 8.6 24.2 14 5-8.6c1.9-3.2 2.4-6.9 1.4-10.6zm-127.8 1.1h-161.4c-3.9 0-7 3.1-7 7s3.1 7 7 7h161.4c3.9 0 7-3.1 7-7s-3.1-7-7-7zm0-34.8h-161.4c-3.9 0-7 3.1-7 7s3.1 7 7 7h161.4c3.9 0 7-3.1 7-7s-3.1-7-7-7zm-161.4 145.8c-3.9 0-7 3.1-7 7s3.1 7 7 7h30.7c3.9 0 7-3.1 7-7s-3.1-7-7-7zm161.4-76.1h-161.4c-3.9 0-7 3.1-7 7s3.1 7 7 7h161.4c3.9 0 7-3.1 7-7s-3.1-7-7-7zm7 41.9c0-3.9-3.1-7-7-7h-161.4c-3.9 0-7 3.1-7 7s3.1 7 7 7h161.4c3.9 0 7-3.1 7-7z" fill="#165268"/></svg>